<svg id="Layer_1" data-name="Layer 1" xmlns="http://www.w3.org/2000/svg" viewBox="0 0 843.6 219.43"><defs><style>.cls-1{fill:#2e3136;}.cls-2{fill:#198643;}</style></defs><path class="cls-1" d="M1.86,66.55H64V79.72H16.58V101.5h42v13.17h-42v22.51h48v13.16H1.86Z"/><path class="cls-1" d="M82.05,66.55H97.73l25.5,39.62,25.5-39.62h15.68v83.79H149.68V90.25l-26.45,39.5h-.48L96.53,90.49v59.85H82.05Z"/><path class="cls-1" d="M186.78,66.55h14.73v83.79H186.78Z"/><path class="cls-1" d="M334.44,66.55h14.73v34.83h40V66.55h14.72v83.79H389.15V115h-40v35.31H334.44Z"/><path class="cls-1" d="M425.41,66.55h62.13V79.72H440.13V101.5h42v13.17h-42v22.51h48v13.16H425.41Z"/><path class="cls-1" d="M535.29,66h13.64l36.88,84.39H570.24l-8.5-20.23H522.13l-8.63,20.23H498.42Zm21.06,51.12L541.87,83.55l-14.36,33.52Z"/><path class="cls-1" d="M600.15,66.55h14.73v70.39h44v13.4H600.15Z"/><path class="cls-1" d="M682.86,80.19H656.28V66.55h68V80.19H697.7v70.15H682.86Z"/><path class="cls-1" d="M739.82,66.55h14.73v34.83h40V66.55h14.72v83.79H794.53V115h-40v35.31H739.82Z"/><path class="cls-2" d="M286.73,23.28A21.72,21.72,0,1,1,265,1.56,21.71,21.71,0,0,1,286.73,23.28Z"/><path class="cls-2" d="M164.52,23.27s78.75,16.92,91.08,45.11c0,0,15.11,17.42-5.17,88.16-9,31.48-17.5,60.49-17.5,60.49s15.25-109.31,13.52-125.2-19.09-29-32.22-38.83S164.52,23.27,164.52,23.27Z"/><path class="cls-2" d="M365.51,23.27s-76.44,16.92-88.4,45.11c0,0-14.67,17.42,5,88.16,8.76,31.48,17,60.49,17,60.49S284.3,107.72,286,91.83s18.53-29,31.27-38.83S365.51,23.27,365.51,23.27Z"/><path class="cls-1" d="M820.54,68.92h-4V67.47h9.77v1.45h-4V80.68h-1.73Z"/><path class="cls-1" d="M838.9,74.88c-.1-1.85-.22-4.06-.2-5.7h-.06c-.45,1.54-1,3.19-1.66,5l-2.33,6.41h-1.3l-2.13-6.29c-.63-1.86-1.16-3.57-1.53-5.13h0c0,1.64-.14,3.85-.25,5.83L829,80.68h-1.62l.92-13.21h2.17l2.26,6.39c.55,1.62,1,3.07,1.33,4.45h.06c.33-1.34.8-2.79,1.39-4.45l2.35-6.39h2.17l.83,13.21h-1.67Z"/></svg>